<svg width="16" height="16" viewBox="0 0 16 16" fill="none" xmlns="http://www.w3.org/2000/svg">
<path d="M14.2366 1.76394C13.9932 1.52051 13.7043 1.3274 13.3863 1.19565C13.0682 1.0639 12.7274 0.996094 12.3831 0.996094C12.0389 0.996094 11.698 1.0639 11.38 1.19565C11.062 1.3274 10.773 1.52051 10.5296 1.76394L2.65763 9.63594C2.28376 10.0101 2.01715 10.4777 1.88563 10.9899L1.01563 14.3759C0.994056 14.4602 0.994828 14.5486 1.01787 14.6325C1.04091 14.7163 1.08543 14.7927 1.14703 14.8541C1.20862 14.9155 1.28517 14.9598 1.3691 14.9825C1.45303 15.0053 1.54145 15.0058 1.62563 14.9839L5.01063 14.1149C5.52301 13.9836 5.99067 13.717 6.36463 13.3429L14.2366 5.47094C14.4801 5.22755 14.6732 4.93859 14.8049 4.62057C14.9367 4.30254 15.0045 3.96168 15.0045 3.61744C15.0045 3.2732 14.9367 2.93234 14.8049 2.61431C14.6732 2.29629 14.4801 2.00733 14.2366 1.76394ZM11.2366 2.47094C11.5407 2.16687 11.9531 1.99604 12.3831 1.99604C12.8132 1.99604 13.2256 2.16687 13.5296 2.47094C13.8337 2.77501 14.0045 3.18742 14.0045 3.61744C14.0045 4.04746 13.8337 4.45987 13.5296 4.76394L12.7506 5.54294L10.4576 3.24994L11.2366 2.47094ZM9.75063 3.95694L12.0436 6.24994L5.65763 12.6359C5.41001 12.8831 5.10057 13.0592 4.76163 13.1459L2.19463 13.8059L2.85463 11.2389C2.94071 10.8997 3.11693 10.5901 3.36463 10.3429L9.75063 3.95694Z" fill="#FF852E"/>
</svg>
