<svg width="67" height="16" viewBox="0 0 67 16" fill="none" xmlns="http://www.w3.org/2000/svg">
<path d="M3.6582 15H0.708984V0.908203H3.6582V15ZM6.89062 15V0.117188H9.73242V15H6.89062ZM12.6914 15V4.22852H15.4453V5.98633H15.6211C16.0605 4.75586 17.1836 3.99414 18.5996 3.99414C20.1133 3.99414 21.1484 4.73633 21.5781 5.98633H21.7539C22.252 4.78516 23.4922 3.99414 24.9961 3.99414C27.1445 3.99414 28.4824 5.39062 28.4824 7.60742V15H25.6406V8.35938C25.6406 7.08008 25.0449 6.44531 23.8438 6.44531C22.6914 6.44531 21.9492 7.26562 21.9492 8.4082V15H19.2148V8.24219C19.2148 7.09961 18.5508 6.44531 17.4375 6.44531C16.3242 6.44531 15.5332 7.31445 15.5332 8.51562V15H12.6914Z" fill="#323232"/>
<path d="M34.3516 15H31.5293V0.908203H33.9902L40.4746 9.6875H40.6504V0.908203H43.4727V15H41.0312L34.5273 6.18164H34.3516V15ZM56.3633 4.22852V15H53.6094V13.2715H53.4336C52.9258 14.5215 51.9199 15.2344 50.2891 15.2344C47.9648 15.2344 46.5195 13.75 46.5195 11.25V4.22852H49.3613V10.5176C49.3613 12.002 50.0352 12.7637 51.3438 12.7637C52.7598 12.7637 53.5215 11.875 53.5215 10.4395V4.22852H56.3633ZM59.2148 15V4.22852H61.9688V5.94727H62.1445C62.4277 4.87305 63.541 4.05273 64.9082 4.05273C65.2988 4.05273 65.7773 4.10156 66.0215 4.18945V6.77734C65.7969 6.68945 65.1328 6.60156 64.6738 6.60156C63.1211 6.60156 62.0566 7.51953 62.0566 9.0332V15H59.2148Z" fill="#FF852E"/>
</svg>
