<svg width="20" height="20" viewBox="0 0 20 20" fill="none" xmlns="http://www.w3.org/2000/svg">
<path d="M5.10407 3.58686C7.39215 1.89673 8.53619 1.05166 9.84273 1.00293C9.94754 0.999023 10.0525 0.999023 10.1573 1.00293C11.4638 1.05166 12.6079 1.89673 14.8959 3.58686C17.184 5.27698 18.328 6.12205 18.7774 7.37033C18.8134 7.47046 18.8458 7.57191 18.8746 7.67446C19.2327 8.95285 18.7957 10.3202 17.9218 13.0549C17.0478 15.7896 16.6108 17.1569 15.582 17.9771C15.4994 18.0429 15.4146 18.1056 15.3275 18.1651C14.2423 18.9064 12.8282 18.9064 10 18.9064C7.17178 18.9064 5.75767 18.9064 4.67249 18.1651C4.58543 18.1056 4.50055 18.0429 4.41802 17.9771C3.38918 17.1569 2.95219 15.7896 2.07822 13.0549C1.20426 10.3202 0.767274 8.95285 1.12543 7.67446C1.15417 7.57191 1.18659 7.47046 1.22263 7.37033C1.67196 6.12205 2.816 5.27698 5.10407 3.58686Z" />
<path d="M2.07822 13.0549L3.00279 12.7594L3.00279 12.7594L2.07822 13.0549ZM1.12543 7.67446L2.06008 7.93631L1.12543 7.67446ZM5.10407 3.58686L4.52737 2.80612L4.52737 2.80612L5.10407 3.58686ZM1.22263 7.37033L2.1359 7.69906L2.1359 7.69906L1.22263 7.37033ZM4.67249 18.1651L4.12496 18.9665L4.12496 18.9665L4.67249 18.1651ZM4.41802 17.9771L3.81296 18.7361L3.81296 18.7361L4.41802 17.9771ZM17.9218 13.0549L16.9972 12.7594L17.9218 13.0549ZM15.582 17.9771L16.187 18.7361L16.187 18.7361L15.582 17.9771ZM15.3275 18.1651L15.875 18.9665L15.875 18.9665L15.3275 18.1651ZM14.8959 3.58686L15.4726 2.80612L15.4726 2.80612L14.8959 3.58686ZM18.7774 7.37033L17.8641 7.69906L18.7774 7.37033ZM18.8746 7.67446L17.9399 7.93631L18.8746 7.67446ZM10.1573 1.00293L10.1211 1.97289L10.1573 1.00293ZM9.84273 1.00293L9.87891 1.97289L9.84273 1.00293ZM3.00279 12.7594C2.55949 11.3723 2.25134 10.4039 2.09046 9.62276C1.93408 8.86347 1.93806 8.37184 2.06008 7.93631L0.190791 7.41261C-0.0453497 8.25547 -0.0019559 9.08671 0.189105 10.0144C0.375665 10.9202 0.722997 12.0028 1.15366 13.3504L3.00279 12.7594ZM4.52737 2.80612C3.40031 3.63865 2.49208 4.30788 1.81626 4.93033C1.12321 5.56863 0.606066 6.21732 0.309365 7.04159L2.1359 7.69906C2.28853 7.27505 2.56806 6.87707 3.13139 6.35824C3.71193 5.82355 4.51976 5.22519 5.68077 4.36759L4.52737 2.80612ZM2.06008 7.93631C2.0825 7.85629 2.10779 7.77716 2.1359 7.69906L0.309365 7.04159C0.265384 7.16377 0.225834 7.28752 0.190791 7.41261L2.06008 7.93631ZM10 17.9358C8.56445 17.9358 7.56616 17.9345 6.78871 17.849C6.03477 17.7661 5.58343 17.6119 5.22001 17.3636L4.12496 18.9665C4.84673 19.4596 5.64504 19.6762 6.57651 19.7786C7.48446 19.8784 8.60733 19.8771 10 19.8771V17.9358ZM1.15366 13.3504C1.58429 14.6978 1.92924 15.7814 2.3021 16.6259C2.68378 17.4905 3.13042 18.192 3.81296 18.7361L5.02308 17.2182C4.67678 16.9421 4.3905 16.5498 4.07799 15.8419C3.75666 15.1141 3.44613 14.1466 3.00279 12.7594L1.15366 13.3504ZM5.22001 17.3636C5.15267 17.3176 5.08698 17.2691 5.02308 17.2182L3.81296 18.7361C3.91412 18.8167 4.01819 18.8936 4.12496 18.9665L5.22001 17.3636ZM16.9972 12.7594C16.5539 14.1466 16.2433 15.1141 15.922 15.8419C15.6095 16.5498 15.3232 16.9421 14.9769 17.2182L16.187 18.7361C16.8696 18.192 17.3162 17.4905 17.6979 16.6259C18.0708 15.7814 18.4157 14.6978 18.8463 13.3504L16.9972 12.7594ZM10 19.8771C11.3927 19.8771 12.5155 19.8784 13.4235 19.7786C14.355 19.6762 15.1533 19.4596 15.875 18.9665L14.78 17.3636C14.4166 17.6119 13.9652 17.7661 13.2113 17.849C12.4338 17.9345 11.4355 17.9358 10 17.9358V19.8771ZM14.9769 17.2182C14.913 17.2691 14.8473 17.3176 14.78 17.3636L15.875 18.9665C15.9818 18.8936 16.0859 18.8167 16.187 18.7361L14.9769 17.2182ZM14.3192 4.36759C15.4802 5.22519 16.2881 5.82355 16.8686 6.35824C17.4319 6.87707 17.7115 7.27505 17.8641 7.69906L19.6906 7.04159C19.3939 6.21732 18.8768 5.56863 18.1837 4.93033C17.5079 4.30788 16.5997 3.63865 15.4726 2.80612L14.3192 4.36759ZM18.8463 13.3504C19.277 12.0028 19.6243 10.9202 19.8109 10.0144C20.002 9.08671 20.0453 8.25547 19.8092 7.41261L17.9399 7.93631C18.0619 8.37184 18.0659 8.86348 17.9095 9.62276C17.7487 10.4039 17.4405 11.3723 16.9972 12.7594L18.8463 13.3504ZM17.8641 7.69906C17.8922 7.77715 17.9175 7.85629 17.9399 7.93631L19.8092 7.41261C19.7742 7.28753 19.7346 7.16377 19.6906 7.04159L17.8641 7.69906ZM15.4726 2.80612C14.3457 1.97371 13.4388 1.30216 12.6473 0.840798C11.8362 0.368025 11.0651 0.0654828 10.1934 0.0329745L10.1211 1.97289C10.556 1.98911 11.0101 2.13347 11.6697 2.51794C12.3489 2.91382 13.1581 3.50987 14.3192 4.36759L15.4726 2.80612ZM5.68077 4.36759C6.84194 3.50987 7.65111 2.91382 8.33027 2.51794C8.98987 2.13347 9.44397 1.98911 9.87891 1.97289L9.80655 0.0329745C8.93495 0.0654828 8.16376 0.368025 7.35268 0.840798C6.56117 1.30216 5.65428 1.97371 4.52737 2.80612L5.68077 4.36759ZM10.1934 0.0329745C10.0645 0.0281662 9.93547 0.0281662 9.80655 0.0329745L9.87891 1.97289C9.95961 1.96988 10.0404 1.96988 10.1211 1.97289L10.1934 0.0329745Z" fill="currentColor"/>
<path d="M8.09375 14.7578H11.5257" stroke="#7A7F88" stroke-width="1.94126" stroke-linecap="round"/>
</svg>
