<svg width="24" height="24" viewBox="0 0 24 24" fill="none" xmlns="http://www.w3.org/2000/svg">
<path d="M5.72032 5.71981C5.86094 5.57936 6.05157 5.50047 6.25032 5.50047C6.44907 5.50047 6.63969 5.57936 6.78032 5.71981L12.0003 10.9398L17.2203 5.71981C17.312 5.62109 17.4286 5.54892 17.5578 5.5109C17.6871 5.47289 17.8242 5.47044 17.9547 5.50381C18.0852 5.53719 18.2044 5.60515 18.2995 5.70053C18.3946 5.79592 18.4623 5.9152 18.4953 6.04581C18.5287 6.17619 18.5264 6.31316 18.4886 6.44233C18.4507 6.57149 18.3788 6.68807 18.2803 6.77981L13.0603 11.9998L18.2803 17.2198C18.379 17.3115 18.4512 17.4281 18.4892 17.5573C18.5272 17.6866 18.5297 17.8237 18.4963 17.9542C18.4629 18.0847 18.395 18.2038 18.2996 18.299C18.2042 18.3941 18.0849 18.4618 17.9543 18.4948C17.8239 18.5282 17.687 18.5259 17.5578 18.4881C17.4286 18.4502 17.3121 18.3783 17.2203 18.2798L12.0003 13.0598L6.78032 18.2798C6.63806 18.4122 6.45 18.4843 6.25569 18.481C6.06137 18.4776 5.87592 18.3991 5.73832 18.2618C5.60107 18.1242 5.52252 17.9388 5.51916 17.7444C5.5158 17.5501 5.58791 17.3621 5.72032 17.2198L10.9403 11.9998L5.72032 6.77981C5.57987 6.63919 5.50098 6.44856 5.50098 6.24981C5.50098 6.05106 5.57987 5.86044 5.72032 5.71981Z" fill="#777777"/>
</svg>
