<svg width="24" height="24" viewBox="0 0 24 24" fill="none" xmlns="http://www.w3.org/2000/svg">
<path d="M14.61 4.84586C14.5879 4.66757 14.5182 4.49853 14.4082 4.35649C14.2982 4.21445 14.152 4.10467 13.9849 4.03867C13.8179 3.97268 13.6361 3.95291 13.4587 3.98145C13.2814 4.00999 13.1149 4.08578 12.977 4.20086L7.958 8.38386C7.86818 8.45876 7.75495 8.49981 7.638 8.49986L3.75 8.49986C3.06 8.49986 2.5 9.05986 2.5 9.74986L2.5 14.2499C2.5 14.9399 3.06 15.4999 3.75 15.4999L7.638 15.4999C7.75495 15.4999 7.86818 15.541 7.958 15.6159L12.978 19.7979C13.1159 19.9126 13.2821 19.9882 13.4593 20.0167C13.6364 20.0451 13.818 20.0254 13.9849 19.9595C14.1517 19.8936 14.2978 19.7841 14.4078 19.6424C14.5178 19.5006 14.5877 19.3319 14.61 19.1539L14.705 18.3879C15.235 14.1459 15.235 9.85386 14.705 5.61186L14.61 4.84586ZM19.908 5.94586C20.0015 5.91485 20.1002 5.90257 20.1984 5.90971C20.2967 5.91686 20.3926 5.94328 20.4806 5.98749C20.5686 6.03169 20.6471 6.0928 20.7115 6.16733C20.7759 6.24186 20.825 6.32835 20.856 6.42186C21.436 8.17686 21.75 10.0519 21.75 11.9999C21.7517 13.895 21.4499 15.7782 20.856 17.5779C20.826 17.6725 20.7776 17.7603 20.7134 17.8362C20.6493 17.912 20.5707 17.9743 20.4823 18.0195C20.3938 18.0647 20.2973 18.0919 20.1983 18.0995C20.0992 18.107 19.9997 18.0949 19.9054 18.0637C19.8111 18.0325 19.724 17.9829 19.649 17.9178C19.574 17.8526 19.5127 17.7733 19.4687 17.6842C19.4247 17.5952 19.3987 17.4983 19.3924 17.3992C19.3861 17.3001 19.3996 17.2007 19.432 17.1069C19.9754 15.4591 20.2516 13.7349 20.25 11.9999C20.2516 10.2648 19.9754 8.54064 19.432 6.89286C19.3697 6.70415 19.3848 6.49843 19.4741 6.32088C19.5633 6.14332 19.7194 6.00844 19.908 5.94586ZM18.032 7.94786C17.962 7.76314 17.8219 7.61351 17.6422 7.53147C17.4625 7.44943 17.2576 7.4416 17.0722 7.5097C16.8868 7.57779 16.7357 7.7163 16.6517 7.89514C16.5678 8.07398 16.5579 8.27871 16.624 8.46486C17.029 9.56486 17.25 10.7559 17.25 11.9999C17.2509 13.2058 17.039 14.4025 16.624 15.5349C16.5579 15.721 16.5678 15.9257 16.6517 16.1046C16.7357 16.2834 16.8868 16.4219 17.0722 16.49C17.2576 16.5581 17.4625 16.5503 17.6422 16.4682C17.8219 16.3862 17.962 16.2366 18.032 16.0519C18.5094 14.7544 18.7526 13.3824 18.75 11.9999C18.75 10.5769 18.497 9.21186 18.032 7.94786Z" fill="#F1F1F1"/>
</svg>
